<svg xmlns="http://www.w3.org/2000/svg" xmlns:xlink="http://www.w3.org/1999/xlink" width="1480" zoomAndPan="magnify" viewBox="0 0 1110 374.999991" height="500" preserveAspectRatio="xMidYMid meet" version="1.0"><defs><clipPath id="7c59de00be"><path d="M 392.246094 108 L 1094.996094 108 L 1094.996094 268 L 392.246094 268 Z M 392.246094 108 " clip-rule="nonzero"/></clipPath></defs><path fill="#4087fc" d="M 22.40625 138.226562 C 22.40625 100.582031 22.40625 81.757812 29.734375 67.378906 C 36.175781 54.730469 46.460938 44.449219 59.109375 38.003906 C 73.488281 30.679688 92.308594 30.679688 129.957031 30.679688 L 228.542969 30.679688 C 266.191406 30.679688 285.011719 30.679688 299.390625 38.003906 C 312.039062 44.449219 322.324219 54.730469 328.765625 67.378906 C 336.09375 81.757812 336.09375 100.582031 336.09375 138.226562 L 336.09375 236.816406 C 336.09375 274.460938 336.09375 293.285156 328.765625 307.664062 C 322.324219 320.3125 312.039062 330.59375 299.390625 337.039062 C 285.011719 344.367188 266.191406 344.367188 228.542969 344.367188 L 129.957031 344.367188 C 92.308594 344.367188 73.488281 344.367188 59.109375 337.039062 C 46.460938 330.59375 36.175781 320.3125 29.734375 307.664062 C 22.40625 293.285156 22.40625 274.460938 22.40625 236.816406 Z M 22.40625 138.226562 " fill-opacity="1" fill-rule="nonzero"/><path fill="#ffffff" d="M 92.613281 120.304688 C 84.773438 120.304688 78.421875 127.46875 78.421875 136.308594 L 78.421875 213.929688 C 78.421875 236.46875 94.621094 254.742188 114.609375 254.742188 L 198.667969 253.941406 C 206.507812 253.941406 212.859375 246.773438 212.859375 237.9375 L 212.859375 159.515625 C 212.859375 136.972656 193.632812 120.304688 173.648438 120.304688 Z M 92.613281 120.304688 " fill-opacity="1" fill-rule="nonzero"/><path fill="#ffffff" d="M 232.042969 150.859375 C 226.972656 155.875 224.0625 163.109375 224.0625 170.71875 L 224.0625 203.199219 C 224.0625 210.804688 226.972656 218.042969 232.042969 223.054688 L 263.597656 250.847656 C 270.015625 257.195312 280.078125 252.054688 280.078125 242.421875 L 280.078125 133.019531 C 280.078125 123.390625 270.015625 118.246094 263.597656 124.597656 Z M 232.042969 150.859375 " fill-opacity="1" fill-rule="nonzero"/><g clip-path="url(#7c59de00be)"><path fill="#ffffff" d="M 526.558594 234.878906 L 518.652344 234.527344 L 447.585938 234.527344 L 542.3125 139.800781 L 541.929688 131.894531 C 541.914062 131.136719 541.859375 130.382812 541.769531 129.632812 C 541.679688 128.878906 541.550781 128.132812 541.390625 127.394531 C 541.230469 126.652344 541.035156 125.921875 540.804688 125.199219 C 540.574219 124.480469 540.308594 123.769531 540.007812 123.074219 C 539.710938 122.378906 539.378906 121.699219 539.015625 121.03125 C 538.652344 120.367188 538.261719 119.722656 537.835938 119.09375 C 537.410156 118.46875 536.957031 117.863281 536.476562 117.277344 C 535.992188 116.695312 535.484375 116.132812 534.949219 115.597656 C 534.414062 115.0625 533.851562 114.554688 533.269531 114.070312 C 532.683594 113.589844 532.078125 113.136719 531.453125 112.710938 C 530.824219 112.289062 530.179688 111.894531 529.515625 111.53125 C 528.851562 111.167969 528.167969 110.835938 527.472656 110.539062 C 526.777344 110.238281 526.066406 109.976562 525.347656 109.746094 C 524.625 109.515625 523.894531 109.316406 523.15625 109.15625 C 522.414062 108.996094 521.667969 108.871094 520.917969 108.777344 C 520.164062 108.6875 519.410156 108.632812 518.652344 108.617188 L 510.746094 108.234375 L 392.363281 108.234375 L 392.773438 116.140625 C 393.769531 128.96875 403.109375 138.6875 416.023438 139.421875 L 423.929688 139.800781 L 495.023438 139.800781 L 400.238281 234.527344 L 400.648438 242.402344 C 401.089844 255.082031 411.25 265.242188 423.929688 265.710938 L 431.832031 266.089844 L 550.246094 266.089844 L 549.835938 258.183594 C 548.785156 245.214844 539.589844 235.726562 526.558594 234.90625 Z M 621.34375 108.234375 L 621.226562 108.234375 C 619.503906 108.238281 617.78125 108.292969 616.066406 108.40625 C 614.347656 108.519531 612.632812 108.691406 610.925781 108.917969 C 609.21875 109.140625 607.523438 109.421875 605.832031 109.761719 C 604.144531 110.097656 602.46875 110.488281 600.804688 110.933594 C 599.144531 111.382812 597.496094 111.882812 595.867188 112.4375 C 594.234375 112.992188 592.625 113.597656 591.035156 114.257812 C 589.445312 114.917969 587.875 115.628906 586.332031 116.390625 C 584.789062 117.152344 583.273438 117.964844 581.78125 118.828125 C 580.289062 119.6875 578.828125 120.597656 577.398438 121.554688 C 575.964844 122.511719 574.566406 123.515625 573.203125 124.5625 C 571.835938 125.613281 570.507812 126.707031 569.210938 127.839844 C 567.917969 128.976562 566.664062 130.152344 565.445312 131.371094 C 564.230469 132.589844 563.050781 133.847656 561.917969 135.140625 C 560.78125 136.4375 559.691406 137.769531 558.644531 139.132812 C 557.597656 140.5 556.59375 141.898438 555.636719 143.332031 C 554.683594 144.765625 553.773438 146.226562 552.914062 147.71875 C 552.054688 149.210938 551.242188 150.726562 550.480469 152.273438 C 549.71875 153.816406 549.011719 155.382812 548.351562 156.976562 C 547.695312 158.566406 547.089844 160.175781 546.535156 161.808594 C 545.980469 163.4375 545.484375 165.085938 545.039062 166.75 C 544.59375 168.414062 544.203125 170.089844 543.867188 171.777344 C 543.53125 173.464844 543.253906 175.164062 543.027344 176.871094 C 542.804688 178.578125 542.636719 180.292969 542.523438 182.011719 C 542.410156 183.730469 542.355469 185.449219 542.355469 187.171875 C 542.355469 188.890625 542.414062 190.613281 542.527344 192.332031 C 542.640625 194.050781 542.808594 195.761719 543.035156 197.46875 C 543.257812 199.175781 543.539062 200.875 543.875 202.5625 C 544.210938 204.25 544.605469 205.925781 545.050781 207.589844 C 545.496094 209.253906 545.996094 210.898438 546.550781 212.53125 C 547.101562 214.160156 547.710938 215.773438 548.367188 217.363281 C 549.027344 218.953125 549.738281 220.519531 550.5 222.066406 C 551.261719 223.609375 552.074219 225.125 552.9375 226.617188 C 553.796875 228.109375 554.707031 229.570312 555.664062 231 C 556.621094 232.433594 557.621094 233.832031 558.671875 235.199219 C 559.71875 236.5625 560.8125 237.894531 561.945312 239.1875 C 563.082031 240.484375 564.257812 241.738281 565.476562 242.957031 C 566.695312 244.171875 567.949219 245.351562 569.246094 246.484375 C 570.539062 247.621094 571.871094 248.710938 573.238281 249.761719 C 574.601562 250.808594 576.003906 251.808594 577.433594 252.765625 C 578.867188 253.722656 580.328125 254.632812 581.820312 255.492188 C 583.308594 256.355469 584.828125 257.164062 586.371094 257.925781 C 587.917969 258.6875 589.484375 259.398438 591.074219 260.058594 C 592.667969 260.714844 594.277344 261.320312 595.90625 261.875 C 597.539062 262.429688 599.183594 262.929688 600.847656 263.375 C 602.511719 263.820312 604.1875 264.210938 605.875 264.546875 C 607.566406 264.882812 609.261719 265.160156 610.96875 265.386719 C 612.675781 265.613281 614.390625 265.78125 616.109375 265.894531 C 617.828125 266.003906 619.546875 266.0625 621.269531 266.0625 C 622.992188 266.0625 624.710938 266.003906 626.429688 265.894531 C 628.148438 265.78125 629.859375 265.613281 631.566406 265.386719 C 633.273438 265.160156 634.972656 264.882812 636.660156 264.546875 C 638.351562 264.210938 640.027344 263.820312 641.691406 263.375 C 643.351562 262.929688 645 262.429688 646.628906 261.875 C 648.261719 261.320312 649.871094 260.714844 651.460938 260.058594 C 653.054688 259.398438 654.621094 258.6875 656.164062 257.925781 C 657.710938 257.164062 659.226562 256.355469 660.71875 255.492188 C 662.210938 254.632812 663.671875 253.722656 665.105469 252.765625 C 666.535156 251.808594 667.933594 250.808594 669.300781 249.761719 C 670.667969 248.710938 671.996094 247.621094 673.292969 246.484375 C 674.585938 245.351562 675.84375 244.171875 677.0625 242.957031 C 678.277344 241.738281 679.457031 240.484375 680.589844 239.1875 C 681.726562 237.894531 682.820312 236.5625 683.867188 235.199219 C 684.914062 233.832031 685.917969 232.433594 686.875 231 C 687.832031 229.570312 688.742188 228.109375 689.601562 226.617188 C 690.464844 225.125 691.273438 223.609375 692.035156 222.066406 C 692.796875 220.519531 693.507812 218.953125 694.167969 217.363281 C 694.828125 215.773438 695.433594 214.160156 695.988281 212.53125 C 696.542969 210.898438 697.042969 209.253906 697.488281 207.589844 C 697.933594 205.925781 698.324219 204.25 698.660156 202.5625 C 699 200.875 699.277344 199.175781 699.503906 197.46875 C 699.730469 195.761719 699.898438 194.050781 700.011719 192.332031 C 700.125 190.613281 700.179688 188.890625 700.183594 187.171875 C 700.183594 185.449219 700.125 183.726562 700.015625 182.011719 C 699.902344 180.292969 699.734375 178.578125 699.511719 176.871094 C 699.285156 175.164062 699.003906 173.464844 698.671875 171.777344 C 698.335938 170.089844 697.945312 168.414062 697.5 166.75 C 697.054688 165.085938 696.554688 163.4375 696.003906 161.808594 C 695.449219 160.175781 694.84375 158.566406 694.183594 156.976562 C 693.527344 155.382812 692.816406 153.816406 692.054688 152.273438 C 691.296875 150.726562 690.484375 149.210938 689.625 147.71875 C 688.765625 146.226562 687.855469 144.765625 686.898438 143.332031 C 685.941406 141.898438 684.941406 140.5 683.894531 139.132812 C 682.847656 137.769531 681.753906 136.4375 680.621094 135.140625 C 679.484375 133.847656 678.308594 132.589844 677.09375 131.371094 C 675.875 130.152344 674.621094 128.976562 673.324219 127.839844 C 672.03125 126.707031 670.703125 125.613281 669.335938 124.5625 C 667.96875 123.515625 666.570312 122.511719 665.140625 121.554688 C 663.707031 120.597656 662.246094 119.6875 660.757812 118.828125 C 659.265625 117.964844 657.75 117.152344 656.203125 116.390625 C 654.660156 115.628906 653.09375 114.917969 651.503906 114.257812 C 649.914062 113.597656 648.300781 112.992188 646.671875 112.4375 C 645.042969 111.882812 643.394531 111.382812 641.730469 110.933594 C 640.070312 110.488281 638.394531 110.097656 636.703125 109.761719 C 635.015625 109.421875 633.316406 109.140625 631.609375 108.917969 C 629.902344 108.691406 628.191406 108.519531 626.472656 108.40625 C 624.753906 108.292969 623.035156 108.238281 621.3125 108.234375 Z M 654.753906 220.644531 C 653.664062 221.789062 652.523438 222.875 651.332031 223.902344 C 650.136719 224.929688 648.894531 225.894531 647.601562 226.800781 C 646.3125 227.703125 644.976562 228.542969 643.605469 229.3125 C 642.230469 230.082031 640.820312 230.785156 639.375 231.414062 C 637.929688 232.042969 636.457031 232.601562 634.957031 233.085938 C 633.457031 233.566406 631.9375 233.976562 630.394531 234.308594 C 628.855469 234.640625 627.300781 234.894531 625.734375 235.070312 C 624.167969 235.246094 622.597656 235.34375 621.023438 235.363281 C 619.445312 235.382812 617.875 235.324219 616.304688 235.1875 C 614.734375 235.050781 613.175781 234.835938 611.625 234.542969 C 610.078125 234.25 608.546875 233.882812 607.035156 233.4375 C 605.523438 232.988281 604.035156 232.46875 602.578125 231.875 C 601.117188 231.28125 599.691406 230.617188 598.296875 229.882812 C 596.902344 229.144531 595.550781 228.339844 594.234375 227.46875 C 592.921875 226.597656 591.65625 225.664062 590.4375 224.667969 C 589.214844 223.667969 588.046875 222.613281 586.933594 221.5 C 585.820312 220.382812 584.761719 219.21875 583.765625 217.996094 C 582.765625 216.777344 581.832031 215.511719 580.960938 214.199219 C 580.085938 212.886719 579.28125 211.53125 578.546875 210.140625 C 577.808594 208.746094 577.144531 207.320312 576.550781 205.859375 C 575.953125 204.402344 575.433594 202.914062 574.988281 201.402344 C 574.542969 199.890625 574.171875 198.363281 573.878906 196.8125 C 573.585938 195.265625 573.371094 193.707031 573.230469 192.136719 C 573.09375 190.566406 573.035156 188.992188 573.054688 187.417969 C 573.074219 185.839844 573.171875 184.269531 573.347656 182.703125 C 573.523438 181.136719 573.777344 179.582031 574.105469 178.042969 C 574.4375 176.5 574.84375 174.980469 575.328125 173.480469 C 575.808594 171.980469 576.367188 170.507812 576.996094 169.0625 C 577.625 167.617188 578.324219 166.207031 579.097656 164.832031 C 579.867188 163.457031 580.703125 162.125 581.605469 160.832031 C 582.511719 159.542969 583.476562 158.296875 584.503906 157.101562 C 585.53125 155.90625 586.613281 154.765625 587.757812 153.679688 C 588.863281 152.628906 590.015625 151.628906 591.21875 150.6875 C 592.421875 149.746094 593.667969 148.867188 594.953125 148.042969 C 596.242188 147.222656 597.566406 146.464844 598.925781 145.773438 C 600.289062 145.078125 601.679688 144.453125 603.101562 143.894531 C 604.523438 143.335938 605.96875 142.847656 607.4375 142.429688 C 608.90625 142.011719 610.390625 141.664062 611.890625 141.390625 C 613.394531 141.113281 614.90625 140.910156 616.429688 140.78125 C 617.949219 140.652344 619.476562 140.597656 621 140.617188 C 622.527344 140.636719 624.050781 140.726562 625.570312 140.894531 C 627.089844 141.058594 628.59375 141.296875 630.089844 141.609375 C 631.585938 141.921875 633.0625 142.304688 634.519531 142.757812 C 635.976562 143.210938 637.410156 143.734375 638.816406 144.328125 C 640.226562 144.921875 641.601562 145.582031 642.945312 146.308594 C 644.289062 147.03125 645.59375 147.820312 646.859375 148.675781 C 648.128906 149.527344 649.351562 150.4375 650.53125 151.40625 C 651.710938 152.378906 652.839844 153.402344 653.921875 154.484375 C 655 155.5625 656.027344 156.691406 656.996094 157.871094 C 657.96875 159.050781 658.878906 160.273438 659.730469 161.539062 C 660.585938 162.804688 661.375 164.113281 662.101562 165.453125 C 662.828125 166.796875 663.488281 168.171875 664.082031 169.582031 C 664.675781 170.988281 665.199219 172.421875 665.652344 173.878906 C 666.109375 175.335938 666.492188 176.8125 666.804688 178.308594 C 667.117188 179.804688 667.355469 181.308594 667.523438 182.828125 C 667.6875 184.34375 667.78125 185.867188 667.800781 187.394531 C 667.820312 188.921875 667.765625 190.445312 667.636719 191.96875 C 667.507812 193.492188 667.308594 195.003906 667.03125 196.503906 C 666.757812 198.007812 666.410156 199.492188 665.992188 200.960938 C 665.574219 202.429688 665.085938 203.875 664.53125 205.296875 C 663.972656 206.71875 663.347656 208.109375 662.65625 209.472656 C 661.960938 210.832031 661.207031 212.15625 660.386719 213.445312 C 659.5625 214.734375 658.683594 215.980469 657.742188 217.183594 C 656.800781 218.386719 655.804688 219.539062 654.753906 220.644531 Z M 1031.660156 108.265625 C 1029.429688 108.265625 1027.207031 108.386719 1024.988281 108.625 C 1022.773438 108.859375 1020.574219 109.214844 1018.394531 109.683594 C 1016.214844 110.152344 1014.066406 110.738281 1011.949219 111.433594 C 1009.828125 112.132812 1007.753906 112.941406 1005.722656 113.859375 C 1003.691406 114.773438 1001.710938 115.796875 999.789062 116.925781 C 997.863281 118.050781 996.003906 119.277344 994.210938 120.601562 C 992.414062 121.925781 990.695312 123.339844 989.050781 124.84375 C 987.40625 126.351562 985.847656 127.941406 984.371094 129.609375 C 982.894531 127.933594 981.335938 126.335938 979.6875 124.824219 C 978.042969 123.3125 976.324219 121.890625 974.527344 120.5625 C 972.730469 119.234375 970.867188 118.003906 968.9375 116.871094 C 967.011719 115.742188 965.03125 114.714844 962.992188 113.796875 C 960.957031 112.875 958.875 112.066406 956.753906 111.367188 C 954.628906 110.667969 952.476562 110.082031 950.292969 109.613281 C 948.105469 109.144531 945.902344 108.792969 943.679688 108.554688 C 941.457031 108.320312 939.230469 108.203125 936.992188 108.207031 C 933.859375 108.203125 930.742188 108.429688 927.640625 108.894531 C 924.539062 109.355469 921.492188 110.042969 918.492188 110.960938 C 915.496094 111.878906 912.582031 113.015625 909.753906 114.371094 C 906.929688 115.722656 904.21875 117.28125 901.621094 119.039062 C 895.472656 112.21875 881.710938 108.207031 873.863281 108.207031 L 873.863281 266.089844 L 881.769531 265.710938 C 894.945312 264.832031 904.519531 255.492188 905.046875 242.402344 L 905.429688 234.496094 L 905.429688 179.242188 L 905.839844 171.335938 C 906.132812 165.421875 907.011719 160.152344 909.703125 155.523438 C 910.222656 154.628906 910.78125 153.761719 911.386719 152.921875 C 911.988281 152.082031 912.632812 151.277344 913.3125 150.5 C 913.996094 149.722656 914.714844 148.980469 915.46875 148.273438 C 916.226562 147.570312 917.011719 146.902344 917.835938 146.273438 C 918.65625 145.644531 919.503906 145.058594 920.382812 144.511719 C 921.261719 143.96875 922.164062 143.46875 923.09375 143.011719 C 924.019531 142.554688 924.96875 142.144531 925.9375 141.78125 C 926.902344 141.417969 927.886719 141.105469 928.886719 140.839844 C 929.886719 140.570312 930.894531 140.355469 931.914062 140.1875 C 932.933594 140.019531 933.960938 139.902344 934.992188 139.835938 C 936.023438 139.769531 937.058594 139.753906 938.089844 139.789062 C 939.121094 139.824219 940.152344 139.910156 941.175781 140.046875 C 942.203125 140.183594 943.21875 140.367188 944.222656 140.605469 C 945.230469 140.839844 946.222656 141.125 947.203125 141.457031 C 948.179688 141.789062 949.140625 142.171875 950.082031 142.597656 C 951.023438 143.027344 951.941406 143.5 952.835938 144.015625 C 955.214844 145.398438 957.378906 147.058594 959.324219 149.007812 C 961.269531 150.953125 962.933594 153.113281 964.3125 155.496094 C 967.035156 160.179688 967.828125 165.421875 968.179688 171.308594 L 968.589844 179.242188 L 968.589844 234.496094 L 968.96875 242.375 C 969.757812 255.257812 979.21875 264.859375 992.246094 265.679688 L 1000.152344 266.0625 L 1000.152344 179.242188 L 1000.503906 171.335938 C 1000.796875 165.480469 1001.675781 160.09375 1004.429688 155.4375 C 1013.183594 140.386719 1032.507812 135.234375 1047.558594 144.015625 C 1049.941406 145.402344 1052.105469 147.070312 1054.050781 149.019531 C 1056 150.96875 1057.660156 153.140625 1059.039062 155.523438 C 1061.730469 160.210938 1062.550781 165.566406 1062.875 171.335938 L 1063.285156 179.242188 L 1063.285156 234.496094 L 1063.664062 242.375 C 1064.484375 255.34375 1073.914062 264.917969 1086.972656 265.679688 L 1094.878906 266.0625 L 1094.878906 171.335938 C 1094.875 169.269531 1094.773438 167.203125 1094.570312 165.144531 C 1094.363281 163.085938 1094.058594 161.042969 1093.652344 159.011719 C 1093.246094 156.984375 1092.742188 154.980469 1092.140625 153 C 1091.539062 151.019531 1090.839844 149.074219 1090.046875 147.164062 C 1089.25 145.253906 1088.367188 143.386719 1087.390625 141.5625 C 1086.410156 139.738281 1085.347656 137.96875 1084.195312 136.246094 C 1083.042969 134.527344 1081.8125 132.871094 1080.496094 131.273438 C 1079.183594 129.675781 1077.792969 128.144531 1076.328125 126.683594 C 1074.863281 125.222656 1073.328125 123.835938 1071.730469 122.523438 C 1070.128906 121.214844 1068.464844 119.984375 1066.746094 118.835938 C 1065.023438 117.691406 1063.25 116.628906 1061.421875 115.65625 C 1059.597656 114.683594 1057.726562 113.800781 1055.816406 113.011719 C 1053.902344 112.222656 1051.957031 111.53125 1049.972656 110.929688 C 1047.992188 110.332031 1045.988281 109.832031 1043.957031 109.433594 C 1041.929688 109.03125 1039.882812 108.730469 1037.824219 108.53125 C 1035.765625 108.332031 1033.699219 108.234375 1031.632812 108.234375 Z M 731.234375 131.339844 C 730.28125 132.242188 729.355469 133.171875 728.449219 134.121094 C 727.542969 135.070312 726.660156 136.042969 725.804688 137.039062 C 724.949219 138.03125 724.117188 139.046875 723.308594 140.082031 C 722.503906 141.117188 721.722656 142.175781 720.96875 143.25 C 720.214844 144.324219 719.488281 145.417969 718.789062 146.527344 C 718.089844 147.640625 717.417969 148.765625 716.777344 149.910156 C 716.132812 151.054688 715.519531 152.214844 714.933594 153.390625 C 714.351562 154.566406 713.792969 155.753906 713.269531 156.957031 C 712.742188 158.160156 712.246094 159.375 711.78125 160.605469 C 711.316406 161.832031 710.882812 163.070312 710.480469 164.320312 C 710.074219 165.570312 709.703125 166.828125 709.363281 168.09375 C 709.023438 169.363281 708.714844 170.636719 708.4375 171.921875 C 708.160156 173.203125 707.914062 174.492188 707.703125 175.789062 C 707.492188 177.085938 707.308594 178.382812 707.164062 179.6875 C 707.015625 180.992188 706.898438 182.300781 706.816406 183.609375 C 706.734375 184.921875 706.683594 186.234375 706.667969 187.546875 C 706.652344 188.859375 706.667969 190.171875 706.714844 191.480469 C 706.761719 192.792969 706.84375 194.105469 706.957031 195.410156 C 707.070312 196.71875 707.21875 198.023438 707.394531 199.324219 C 707.574219 200.625 707.785156 201.917969 708.03125 203.210938 C 708.273438 204.5 708.546875 205.78125 708.855469 207.058594 C 709.164062 208.335938 709.5 209.601562 709.871094 210.863281 C 710.242188 212.121094 710.644531 213.371094 711.078125 214.609375 C 711.511719 215.851562 711.972656 217.078125 712.46875 218.292969 C 712.960938 219.511719 713.488281 220.714844 714.042969 221.902344 C 714.59375 223.09375 715.179688 224.269531 715.792969 225.429688 C 716.40625 226.589844 717.046875 227.734375 717.714844 228.863281 C 718.386719 229.992188 719.085938 231.105469 719.808594 232.199219 C 720.535156 233.292969 721.289062 234.367188 722.066406 235.425781 C 722.84375 236.480469 723.648438 237.519531 724.480469 238.535156 C 725.3125 239.550781 726.167969 240.546875 727.046875 241.519531 C 727.929688 242.492188 728.832031 243.445312 729.761719 244.375 C 730.6875 245.300781 731.640625 246.207031 732.613281 247.085938 C 733.585938 247.96875 734.578125 248.824219 735.59375 249.65625 C 736.609375 250.488281 737.648438 251.292969 738.703125 252.074219 C 739.757812 252.855469 740.832031 253.605469 741.925781 254.332031 C 743.019531 255.058594 744.132812 255.757812 745.261719 256.429688 C 746.386719 257.101562 747.53125 257.742188 748.691406 258.355469 C 749.851562 258.96875 751.027344 259.554688 752.21875 260.109375 C 753.40625 260.664062 754.609375 261.191406 755.828125 261.683594 C 757.042969 262.179688 758.269531 262.644531 759.507812 263.078125 C 760.746094 263.511719 761.996094 263.914062 763.253906 264.289062 C 764.515625 264.660156 765.78125 265 767.058594 265.308594 C 768.335938 265.617188 769.617188 265.890625 770.90625 266.136719 C 772.195312 266.382812 773.492188 266.59375 774.792969 266.773438 C 776.09375 266.953125 777.398438 267.101562 778.703125 267.214844 C 780.011719 267.328125 781.320312 267.410156 782.632812 267.460938 C 783.945312 267.511719 785.257812 267.527344 786.570312 267.511719 C 787.882812 267.496094 789.195312 267.445312 790.503906 267.363281 C 791.816406 267.28125 793.121094 267.167969 794.425781 267.023438 C 795.730469 266.875 797.03125 266.695312 798.328125 266.484375 C 799.621094 266.273438 800.914062 266.027344 802.195312 265.753906 C 803.480469 265.476562 804.753906 265.167969 806.023438 264.828125 C 807.289062 264.492188 808.550781 264.121094 809.800781 263.71875 C 811.050781 263.316406 812.289062 262.882812 813.515625 262.417969 C 814.742188 261.953125 815.960938 261.457031 817.164062 260.933594 C 818.367188 260.410156 819.554688 259.855469 820.730469 259.269531 C 821.90625 258.6875 823.066406 258.074219 824.210938 257.429688 C 825.355469 256.789062 826.484375 256.117188 827.597656 255.421875 C 828.707031 254.722656 829.800781 253.996094 830.878906 253.242188 C 831.953125 252.492188 833.007812 251.710938 834.046875 250.90625 C 835.082031 250.101562 836.097656 249.269531 837.09375 248.414062 C 838.085938 247.558594 839.0625 246.675781 840.011719 245.773438 C 840.964844 244.867188 841.890625 243.9375 842.796875 242.988281 C 843.671875 242.066406 844.527344 241.125 845.355469 240.164062 C 846.1875 239.203125 846.996094 238.21875 847.777344 237.21875 C 848.5625 236.21875 849.320312 235.199219 850.054688 234.160156 C 850.789062 233.121094 851.496094 232.066406 852.179688 230.996094 C 852.863281 229.921875 853.519531 228.835938 854.148438 227.730469 C 854.78125 226.628906 855.382812 225.507812 855.960938 224.375 C 856.535156 223.242188 857.085938 222.097656 857.605469 220.9375 C 858.128906 219.777344 858.621094 218.609375 859.085938 217.425781 C 859.550781 216.242188 859.984375 215.046875 860.390625 213.84375 C 860.800781 212.640625 861.175781 211.425781 861.523438 210.203125 C 861.871094 208.980469 862.191406 207.75 862.480469 206.511719 C 862.769531 205.273438 863.027344 204.03125 863.257812 202.78125 C 863.484375 201.53125 863.683594 200.273438 863.851562 199.015625 C 864.019531 197.753906 864.15625 196.492188 864.265625 195.226562 C 864.371094 193.957031 864.449219 192.691406 864.492188 191.417969 C 864.539062 190.148438 864.554688 188.878906 864.539062 187.605469 C 864.523438 186.335938 864.476562 185.066406 864.402344 183.796875 C 864.324219 182.527344 864.214844 181.261719 864.078125 180 C 863.941406 178.734375 863.773438 177.476562 863.574219 176.21875 C 863.375 174.964844 863.144531 173.714844 862.886719 172.46875 C 862.625 171.226562 862.335938 169.988281 862.019531 168.757812 C 861.699219 167.527344 861.351562 166.304688 860.972656 165.09375 C 860.59375 163.878906 860.1875 162.675781 859.75 161.480469 C 859.3125 160.285156 858.847656 159.105469 858.355469 157.933594 C 857.863281 156.761719 857.339844 155.601562 856.792969 154.457031 C 856.242188 153.308594 855.664062 152.175781 855.0625 151.058594 C 854.457031 149.941406 853.828125 148.835938 853.167969 147.75 C 852.511719 146.660156 851.828125 145.589844 851.121094 144.535156 C 850.410156 143.480469 849.675781 142.441406 848.917969 141.421875 C 848.15625 140.402344 847.375 139.402344 846.566406 138.421875 C 845.757812 137.441406 844.929688 136.476562 844.074219 135.535156 C 843.21875 134.59375 842.34375 133.675781 841.445312 132.777344 C 840.546875 131.875 839.628906 131 838.6875 130.144531 C 837.746094 129.289062 836.785156 128.457031 835.804688 127.648438 C 834.824219 126.84375 833.824219 126.058594 832.804688 125.296875 C 831.785156 124.539062 830.75 123.800781 829.695312 123.09375 C 828.640625 122.382812 827.570312 121.699219 826.480469 121.039062 C 825.394531 120.382812 824.292969 119.75 823.171875 119.144531 C 822.054688 118.539062 820.921875 117.964844 819.777344 117.414062 C 818.632812 116.863281 817.472656 116.339844 816.300781 115.847656 C 815.132812 115.351562 813.949219 114.886719 812.753906 114.449219 C 811.5625 114.011719 810.359375 113.601562 809.144531 113.222656 C 807.929688 112.84375 806.710938 112.496094 805.480469 112.175781 C 804.25 111.855469 803.011719 111.566406 801.769531 111.304688 C 800.523438 111.042969 799.273438 110.816406 798.019531 110.613281 C 796.761719 110.414062 795.503906 110.246094 794.242188 110.105469 C 792.976562 109.96875 791.710938 109.859375 790.441406 109.78125 C 789.171875 109.703125 787.902344 109.65625 786.632812 109.640625 C 785.363281 109.621094 784.089844 109.636719 782.820312 109.679688 C 781.550781 109.726562 780.28125 109.800781 779.015625 109.90625 C 777.75 110.015625 776.484375 110.148438 775.226562 110.316406 C 773.964844 110.484375 772.710938 110.683594 771.457031 110.910156 C 770.207031 111.136719 768.964844 111.394531 767.726562 111.683594 C 766.488281 111.972656 765.257812 112.289062 764.035156 112.636719 C 762.8125 112.984375 761.597656 113.359375 760.394531 113.765625 C 759.1875 114.171875 757.996094 114.605469 756.8125 115.070312 C 755.628906 115.535156 754.457031 116.027344 753.296875 116.546875 C 752.136719 117.066406 750.988281 117.613281 749.855469 118.191406 C 748.722656 118.765625 747.605469 119.367188 746.5 119.996094 C 745.394531 120.628906 744.308594 121.28125 743.234375 121.964844 C 742.164062 122.648438 741.105469 123.355469 740.066406 124.089844 C 739.03125 124.820312 738.011719 125.578125 737.007812 126.363281 C 736.007812 127.144531 735.023438 127.949219 734.0625 128.78125 C 733.097656 129.609375 732.15625 130.464844 731.234375 131.339844 Z M 820.511719 220.644531 C 819.421875 221.765625 818.277344 222.832031 817.078125 223.839844 C 815.882812 224.847656 814.636719 225.792969 813.347656 226.675781 C 812.058594 227.558594 810.726562 228.378906 809.351562 229.128906 C 807.980469 229.882812 806.574219 230.566406 805.136719 231.179688 C 803.695312 231.792969 802.230469 232.332031 800.738281 232.800781 C 799.242188 233.265625 797.730469 233.660156 796.199219 233.976562 C 794.667969 234.296875 793.125 234.535156 791.566406 234.703125 C 790.011719 234.867188 788.453125 234.953125 786.886719 234.964844 C 785.320312 234.976562 783.761719 234.90625 782.203125 234.761719 C 780.644531 234.617188 779.097656 234.398438 777.5625 234.101562 C 776.027344 233.800781 774.507812 233.429688 773.007812 232.980469 C 771.507812 232.535156 770.035156 232.011719 768.589844 231.417969 C 767.140625 230.824219 765.726562 230.160156 764.34375 229.425781 C 762.964844 228.691406 761.621094 227.890625 760.320312 227.023438 C 759.015625 226.15625 757.761719 225.226562 756.550781 224.234375 C 755.339844 223.246094 754.179688 222.195312 753.074219 221.089844 C 751.96875 219.984375 750.917969 218.824219 749.929688 217.613281 C 748.9375 216.402344 748.007812 215.148438 747.140625 213.84375 C 746.273438 212.542969 745.472656 211.199219 744.738281 209.820312 C 744.003906 208.4375 743.339844 207.023438 742.746094 205.574219 C 742.152344 204.128906 741.628906 202.65625 741.183594 201.15625 C 740.734375 199.65625 740.363281 198.136719 740.0625 196.601562 C 739.765625 195.066406 739.546875 193.519531 739.402344 191.960938 C 739.257812 190.402344 739.1875 188.84375 739.199219 187.277344 C 739.210938 185.710938 739.296875 184.152344 739.460938 182.597656 C 739.628906 181.039062 739.867188 179.496094 740.1875 177.964844 C 740.503906 176.433594 740.898438 174.921875 741.363281 173.425781 C 741.832031 171.933594 742.371094 170.46875 742.984375 169.027344 C 743.597656 167.589844 744.28125 166.183594 745.035156 164.8125 C 745.785156 163.4375 746.605469 162.105469 747.488281 160.816406 C 748.371094 159.527344 749.316406 158.28125 750.324219 157.085938 C 751.332031 155.886719 752.398438 154.742188 753.519531 153.652344 C 754.621094 152.578125 755.773438 151.558594 756.972656 150.597656 C 758.175781 149.636719 759.417969 148.734375 760.707031 147.894531 C 761.996094 147.054688 763.324219 146.28125 764.6875 145.570312 C 766.054688 144.859375 767.449219 144.214844 768.878906 143.640625 C 770.304688 143.066406 771.757812 142.5625 773.234375 142.128906 C 774.707031 141.695312 776.203125 141.335938 777.714844 141.046875 C 779.226562 140.761719 780.746094 140.546875 782.28125 140.40625 C 783.8125 140.265625 785.347656 140.203125 786.886719 140.210938 C 788.425781 140.222656 789.960938 140.308594 791.488281 140.46875 C 793.019531 140.625 794.539062 140.859375 796.046875 141.167969 C 797.554688 141.476562 799.042969 141.855469 800.515625 142.308594 C 801.984375 142.761719 803.429688 143.285156 804.847656 143.878906 C 806.269531 144.472656 807.65625 145.132812 809.011719 145.859375 C 810.367188 146.589844 811.683594 147.382812 812.960938 148.238281 C 814.238281 149.097656 815.472656 150.011719 816.660156 150.992188 C 817.851562 151.96875 818.988281 153 820.074219 154.089844 C 821.164062 155.175781 822.195312 156.3125 823.171875 157.503906 C 824.152344 158.691406 825.066406 159.925781 825.925781 161.203125 C 826.78125 162.480469 827.574219 163.796875 828.304688 165.152344 C 829.03125 166.507812 829.691406 167.894531 830.285156 169.316406 C 830.878906 170.734375 831.402344 172.179688 831.855469 173.648438 C 832.308594 175.121094 832.6875 176.609375 832.996094 178.117188 C 833.304688 179.625 833.539062 181.144531 833.695312 182.675781 C 833.855469 184.203125 833.941406 185.738281 833.953125 187.277344 C 833.960938 188.816406 833.898438 190.351562 833.757812 191.882812 C 833.617188 193.417969 833.402344 194.9375 833.117188 196.449219 C 832.828125 197.960938 832.46875 199.457031 832.035156 200.929688 C 831.601562 202.40625 831.097656 203.859375 830.523438 205.285156 C 829.949219 206.714844 829.304688 208.109375 828.59375 209.476562 C 827.882812 210.839844 827.109375 212.167969 826.269531 213.457031 C 825.429688 214.746094 824.527344 215.988281 823.566406 217.191406 C 822.605469 218.390625 821.585938 219.542969 820.511719 220.644531 Z M 820.511719 220.644531 " fill-opacity="1" fill-rule="nonzero"/></g></svg>